<svg xmlns="http://www.w3.org/2000/svg" width="140" height="75" baseProfile="basic"><g overflow="visible"><g display="none"><path fill="none" stroke="#0082FF" stroke-linecap="round" stroke-linejoin="round" stroke-width="10.15" d="M46.3 50.9q4.65 7.8 9.9 11.8 6.2 4.75 13.85 4.75 11.05 0 19.35-10.2 5.5-6.8 12-22 7.1-16.7 9.8-20.8 5.75-8.7 12.8-6.6 6.7 2 6.8 12.25.1 9.05-4.65 21.2-4.65 11.7-11 19.35-6.9 8.25-12.1 6.8-4.1-1.15-7.9-6.75"/><path fill="none" stroke="#795DFD" stroke-linecap="round" stroke-linejoin="round" stroke-width="10.15" d="M42.45 63.8q-2.75 2.9-5.5 3.65-5.2 1.45-12.05-6.8-6.35-7.6-11-19.35-4.8-12.15-4.7-21.2Q9.3 9.85 16 7.85q6.05-1.8 10.95 4.1 3.55 4.2 8.3 15.3 6.7 15.65 8.55 19.25 5.6 10.75 11.8 15.75"/><path fill="none" stroke="#9255FC" stroke-linecap="round" stroke-linejoin="round" stroke-width="10.15" d="M90.75 52.8q-5.75-13.45-9-19-5.5-9.55-11.7-9.55-5 0-9.45 5.95-2.95 4.05-7.2 13.5"/><path fill="none" stroke="#AA4EFB" stroke-linecap="round" stroke-linejoin="round" stroke-width="10.15" d="M128.75 33.3q-1.65 6.15-4.55 12.4-2.85 6.15-6.25 11.15"/><path fill="none" stroke="#C346FA" stroke-linecap="round" stroke-linejoin="round" stroke-width="8.6" d="M106.8 22.65q1.7-3.65 3.15-6.2"/><animate attributeName="display" dur="2s" keyTimes="0;.979;1" repeatCount="indefinite" values="none;inline;inline"/></g><g display="none"><path fill="none" stroke="#0082FF" stroke-linecap="round" stroke-linejoin="round" stroke-width="10.15" d="M31.1 18.35q2 3.75 6.7 15 4.45 10.55 7.6 16.05Q55.6 67.5 70 67.5q11.05 0 19.35-10.2 5.5-6.8 12-22 7.1-16.7 9.8-20.8 5.75-8.7 12.8-6.6 8.85 2.6 6.3 18.85-2.35 14.55-11.1 28.3"/><path fill="none" stroke="#795DFD" stroke-linecap="round" stroke-linejoin="round" stroke-width="10.15" d="M52.65 45.25Q48.1 55.5 45.7 59.4q-4.25 6.8-8.75 8.05-5.2 1.45-12.05-6.8-6.35-7.6-11-19.35-4.8-12.15-4.7-21.2Q9.3 9.85 16 7.85q5.4-1.6 9.85 2.85 3.5 3.55 7.5 12.25"/><path fill="none" stroke="#9255FC" stroke-linecap="round" stroke-linejoin="round" stroke-width="10.15" d="M99.1 65.3q-3.55-2.95-7.25-10.3-4.2-9.15-6.3-13.7-3.75-8.2-6.8-11.95-4.1-5.15-8.75-5.15l-.9.05"/><path fill="none" stroke="#AA4EFB" stroke-linecap="round" stroke-linejoin="round" stroke-width="10.15" d="M130.75 21.35q-.2 9-4.9 20.6"/><path fill="none" stroke="#C346FA" stroke-linecap="round" stroke-linejoin="round" stroke-width="7.1" d="M102.45 32.6l1.7-4"/><animate attributeName="display" dur="2s" keyTimes="0;.958;.979;1" repeatCount="indefinite" values="none;inline;none;none"/></g><g display="none"><path fill="none" stroke="#0082FF" stroke-linecap="round" stroke-linejoin="round" stroke-width="10.15" d="M9.45 17.05q1.05-7.5 6.6-9.15 7.05-2.1 12.8 6.6 2.7 4.1 9.85 20.8 6.45 15.2 12 22 8.25 10.2 19.35 10.2 11.05 0 19.35-10.2 5.5-6.8 12-22 7.1-16.7 9.8-20.8 5.75-8.7 12.8-6.6 3.55 1.05 5.3 4.6 1.6 3.3 1.5 8.45"/><path fill="none" stroke="#795DFD" stroke-linecap="round" stroke-linejoin="round" stroke-width="10.15" d="M62.4 27.95q-3 3.2-6.35 9.9-1.9 3.9-5.6 12.35-7.05 15.45-13.5 17.25-3.85 1.1-8.85-3.4-4.55-4.1-8.95-11.75-9.75-17-9.95-31.4"/><path fill="none" stroke="#9255FC" stroke-linecap="round" stroke-linejoin="round" stroke-width="10.15" d="M112.15 63.8q-5.15 4.8-9.1 3.65-5.2-1.45-10.1-10.4-5.4-11.6-8.1-17.35"/><path fill="none" stroke="#AA4EFB" stroke-linecap="round" stroke-linejoin="round" stroke-width="10.15" d="M127.8 10.25q4.15 4.65 2.5 15.8"/><path fill="none" stroke="#C346FA" stroke-linecap="round" stroke-linejoin="round" stroke-width="5.55" d="M98.15 42.45l1.1-2.35"/><animate attributeName="display" dur="2s" keyTimes="0;.938;.958;1" repeatCount="indefinite" values="none;inline;none;none"/></g><g display="none"><path fill="none" stroke="#0082FF" stroke-linecap="round" stroke-linejoin="round" stroke-width="10.15" d="M15.15 44.3Q9.5 31.5 9.2 21.4 8.85 9.95 16 7.85q7.05-2.1 12.8 6.6 2.7 4.1 9.85 20.8 6.45 15.2 12 22Q58.9 67.45 70 67.45q13.45 0 23.1-15.55 3.35-5.45 7.3-14.5 4.15-10 6.2-14.45"/><path fill="none" stroke="#795DFD" stroke-linecap="round" stroke-linejoin="round" stroke-width="10.15" d="M77.85 28.25Q74.15 24.2 70 24.2q-5.1 0-9.6 6.2-2.95 4.05-7.35 13.95-4.9 11-7.15 14.7-4.3 7.1-8.95 8.4-3.5.95-7.9-2.6-4.1-3.35-8.25-9.85"/><path fill="none" stroke="#9255FC" stroke-linecap="round" stroke-linejoin="round" stroke-width="10.15" d="M120.55 52.8q-4.35 7.45-8.85 11.4-4.9 4.35-8.65 3.25-4.7-1.3-9.05-8.55"/><path fill="none" stroke="#AA4EFB" stroke-linecap="round" stroke-linejoin="round" stroke-width="10.15" d="M117.5 8.25q3-1.45 6.5-.4 2.95.9 4.65 3.45"/><path fill="none" stroke="#C346FA" stroke-linecap="round" stroke-linejoin="round" stroke-width="4.05" d="M93 52.05l.7-1.15"/><animate attributeName="display" dur="2s" keyTimes="0;.917;.938;1" repeatCount="indefinite" values="none;inline;none;none"/></g><g display="none"><path fill="none" stroke="#0082FF" stroke-linecap="round" stroke-linejoin="round" stroke-width="10.15" d="M29.15 65Q24 60.9 19 52.05q-4.9-8.6-7.6-18-2.9-9.95-2.05-16.8 1-7.65 6.65-9.35 7.05-2.1 12.8 6.6 2.7 4.1 9.85 20.8 6.45 15.2 12 22Q58.9 67.5 70 67.5q8.05 0 14.35-5.2"/><path fill="none" stroke="#795DFD" stroke-linecap="round" stroke-linejoin="round" stroke-width="10.15" d="M86.4 43.3q-4.15-9.25-7.15-13.25-4.3-5.8-9.25-5.8-7.15 0-13.9 13.65-.3.55-5.5 11.95-3.25 7.25-5.75 10.9"/><path fill="none" stroke="#9255FC" stroke-linecap="round" stroke-linejoin="round" stroke-width="10.15" d="M126.2 41.15q-3.25 8.3-7.7 15-4.65 7-9.05 9.85"/><path fill="none" stroke="#AA4EFB" stroke-linecap="round" stroke-linejoin="round" stroke-width="9.65" d="M109.95 16.4q2.8-4.75 5.7-7.05"/><path fill="none" stroke="#C346FA" stroke-linecap="round" stroke-linejoin="round" stroke-width="2.5" d="M86.35 60.55l.35-.3"/><animate attributeName="display" dur="2s" keyTimes="0;.896;.917;1" repeatCount="indefinite" values="none;inline;none;none"/></g><g display="none"><path fill="none" stroke="#0082FF" stroke-linecap="round" stroke-linejoin="round" stroke-width="10.15" d="M46.65 57.75q-4.65 8.35-9.7 9.7-5.2 1.45-12.05-6.8-6.35-7.6-11-19.35-4.8-12.15-4.7-21.2Q9.3 9.85 16 7.85q4.95-1.5 9.1 2.15 3.4 2.95 7 10.25 1.3 2.7 6.4 14.65 4.15 9.75 7.35 15.25"/><path fill="none" stroke="#795DFD" stroke-linecap="round" stroke-linejoin="round" stroke-width="10.15" d="M93.1 57.4q-1.9-3.45-5.1-10.65-3.5-7.75-5.1-10.8Q76.75 24.2 70 24.2q-3.8 0-7.2 3.35-2.75 2.75-5.7 8.3"/><path fill="none" stroke="#9255FC" stroke-linecap="round" stroke-linejoin="round" stroke-width="10.15" d="M129.8 29.05q-2.4 11.7-8.85 23"/><path fill="none" stroke="#AA4EFB" stroke-linecap="round" stroke-linejoin="round" stroke-width="8.1" d="M105.15 26.15q1.4-3.3 2.75-5.9"/><animate attributeName="display" dur="2s" keyTimes="0;.875;.896;1" repeatCount="indefinite" values="none;inline;none;none"/></g><g display="none"><path fill="none" stroke="#0082FF" stroke-linecap="round" stroke-linejoin="round" stroke-width="10.15" d="M55.55 38.95q-2.8 5.8-8.3 17.75-5.05 9.3-10.3 10.75-5.2 1.45-12.05-6.8-6.35-7.6-11-19.35-4.8-12.15-4.7-21.2Q9.3 9.85 16 7.85q5.45-1.65 9.95 2.95"/><path fill="none" stroke="#795DFD" stroke-linecap="round" stroke-linejoin="round" stroke-width="10.15" d="M103.7 67.6l-.7-.15q-6.5-1.8-13.95-18.3-4.8-10.65-5.95-12.8-3.5-6.75-6.85-9.6"/><path fill="none" stroke="#9255FC" stroke-linecap="round" stroke-linejoin="round" stroke-width="10.15" d="M130.55 17q1.1 7.8-2.8 19.6"/><path fill="none" stroke="#AA4EFB" stroke-linecap="round" stroke-linejoin="round" stroke-width="6.6" d="M100.95 36.15l1.7-4"/><animate attributeName="display" dur="2s" keyTimes="0;.854;.875;1" repeatCount="indefinite" values="none;inline;none;none"/></g><g display="none"><path fill="none" stroke="#0082FF" stroke-linecap="round" stroke-linejoin="round" stroke-width="10.15" d="M67.35 24.65Q63 26 58.95 32.55q-2.4 3.85-6.75 13.7-4.3 9.65-6.8 13.55-4.1 6.45-8.5 7.7-6.15 1.7-14.3-9.7-7.7-10.75-11.45-24.45"/><path fill="none" stroke="#795DFD" stroke-linecap="round" stroke-linejoin="round" stroke-width="10.15" d="M115.3 60.3q-3.25 4.05-6.35 5.9-3.3 2-6 1.25-4.4-1.25-8.45-7.55-2.55-4.05-6.7-13.45"/><path fill="none" stroke="#9255FC" stroke-linecap="round" stroke-linejoin="round" stroke-width="10.15" d="M124.6 8.05q6.3 2.45 6.15 12.85"/><path fill="none" stroke="#AA4EFB" stroke-linecap="round" stroke-linejoin="round" stroke-width="5.05" d="M96.4 46l1.15-2.35"/><animate attributeName="display" dur="2s" keyTimes="0;.833;.854;1" repeatCount="indefinite" values="none;inline;none;none"/></g><g display="none"><path fill="none" stroke="#0082FF" stroke-linecap="round" stroke-linejoin="round" stroke-width="10.15" d="M81.35 33.2q-5.3-9-11.35-9-5.1 0-9.6 6.2-2.95 4.05-7.35 13.95-4.9 11-7.15 14.7-4.3 7.1-8.95 8.4-3.95 1.15-9.1-3.65"/><path fill="none" stroke="#795DFD" stroke-linecap="round" stroke-linejoin="round" stroke-width="10.15" d="M122.55 49q-4.65 9.05-9.75 14.1-5.6 5.55-9.85 4.35-2.55-.7-4.9-3.05"/><path fill="none" stroke="#9255FC" stroke-linecap="round" stroke-linejoin="round" stroke-width="10.15" d="M114.3 10.5q4.4-4.25 9.65-2.65.8.25 1.1.4"/><path fill="none" stroke="#AA4EFB" stroke-linecap="round" stroke-linejoin="round" stroke-width="3.55" d="M90.85 55.3l.75-1.1"/><animate attributeName="display" dur="2s" keyTimes="0;.813;.833;1" repeatCount="indefinite" values="none;inline;none;none"/></g><g display="none"><path fill="none" stroke="#0082FF" stroke-linecap="round" stroke-linejoin="round" stroke-width="10.15" d="M88.55 48.05q-5.5-12.4-8.05-16.25-4.9-7.6-10.5-7.6-6.15 0-11.65 9.4-1.95 3.3-4.55 9.1-4.35 9.6-4.4 9.65"/><path fill="none" stroke="#795DFD" stroke-linecap="round" stroke-linejoin="round" stroke-width="10.15" d="M127.65 37q-2.4 7.1-5.9 13.6-3.6 6.7-7.5 11.05"/><path fill="none" stroke="#9255FC" stroke-linecap="round" stroke-linejoin="round" stroke-width="9.15" d="M108.25 19.45q2.35-4.5 4.3-7"/><path fill="none" stroke="#AA4EFB" stroke-linecap="round" stroke-linejoin="round" stroke-width="2" d="M83.35 63.05l.35-.25"/><animate attributeName="display" dur="2s" keyTimes="0;.792;.813;1" repeatCount="indefinite" values="none;inline;none;none"/></g><g display="none"><path fill="none" stroke="#0082FF" stroke-linecap="round" stroke-linejoin="round" stroke-width="10.15" d="M95.8 61.8q-2.7-3.65-6.05-10.9-3.7-8.45-5.6-12.4-6.95-14.3-14.2-14.3-4.3 0-8.15 4.4"/><path fill="none" stroke="#795DFD" stroke-linecap="round" stroke-linejoin="round" stroke-width="10.15" d="M130.45 25.2q-1.35 10.25-6.9 21.85"/><path fill="none" stroke="#9255FC" stroke-linecap="round" stroke-linejoin="round" stroke-width="7.6" d="M103.8 29.3l2.25-5.2"/><animate attributeName="display" dur="2s" keyTimes="0;.771;.792;1" repeatCount="indefinite" values="none;inline;none;none"/></g><g display="none"><path fill="none" stroke="#0082FF" stroke-linecap="round" stroke-linejoin="round" stroke-width="10.15" d="M108.25 66.6q-2.75 1.55-5.25.85-5.95-1.65-11.9-13.9-6.35-14.8-9.95-20.75"/><path fill="none" stroke="#795DFD" stroke-linecap="round" stroke-linejoin="round" stroke-width="10.15" d="M129.6 13.15q2.5 6.4-.3 18"/><path fill="none" stroke="#9255FC" stroke-linecap="round" stroke-linejoin="round" stroke-width="6.1" d="M99.55 39.3l1.4-3.15"/><animate attributeName="display" dur="2s" keyTimes="0;.75;.771;1" repeatCount="indefinite" values="none;inline;none;none"/></g><g display="none"><path fill="none" stroke="#0082FF" stroke-linecap="round" stroke-linejoin="round" stroke-width="10.15" d="M117.95 56.85q-3.9 5.7-7.65 8.45-4.05 3.05-7.3 2.15-3.5-.95-6.75-5.15-2.55-3.35-5.55-9.55"/><path fill="none" stroke="#795DFD" stroke-linecap="round" stroke-linejoin="round" stroke-width="10.15" d="M120.8 7.4q1.5-.05 3.15.45 5.05 1.5 6.35 7.85"/><path fill="none" stroke="#9255FC" stroke-linecap="round" stroke-linejoin="round" stroke-width="4.55" d="M94.75 49.05l.85-1.55"/><animate attributeName="display" dur="2s" keyTimes="0;.729;.75;1" repeatCount="indefinite" values="none;inline;none;none"/></g><g display="none"><path fill="none" stroke="#0082FF" stroke-linecap="round" stroke-linejoin="round" stroke-width="10.15" d="M124.45 45.15q-4.5 10.1-10.05 16.35-6 6.85-10.7 6.15"/><path fill="none" stroke="#795DFD" stroke-linecap="round" stroke-linejoin="round" stroke-width="10.15" d="M112.05 13.2q3.7-5.1 7.9-5.7"/><path fill="none" stroke="#9255FC" stroke-linecap="round" stroke-linejoin="round" stroke-width="3.05" d="M88.7 58l.55-.65"/><animate attributeName="display" dur="2s" keyTimes="0;.708;.729;1" repeatCount="indefinite" values="none;inline;none;none"/></g><g display="none"><path fill="none" stroke="#C346FA" stroke-linecap="round" stroke-linejoin="round" stroke-width=".5" d="M55.9 62.5q4.9 3.8 10.6 4.65"/><path fill="none" stroke="#0082FF" stroke-linecap="round" stroke-linejoin="round" stroke-width="10.15" d="M128.7 33.25q-1.65 6.15-4.55 12.4-2.85 6.15-6.25 11.15"/><path fill="none" stroke="#795DFD" stroke-linecap="round" stroke-linejoin="round" stroke-width="8.6" d="M106.7 22.6q1.7-3.65 3.15-6.2"/><animate attributeName="display" dur="2s" keyTimes="0;.688;.708;1" repeatCount="indefinite" values="none;inline;none;none"/></g><g display="none"><path fill="none" stroke="#C346FA" stroke-linecap="round" stroke-linejoin="round" stroke-width="2" d="M46.5 51.25q4.45 7.45 9.75 11.5"/><path fill="none" stroke="#0082FF" stroke-linecap="round" stroke-linejoin="round" stroke-width="10.15" d="M130.75 21.3q-.2 9-4.9 20.6"/><path fill="none" stroke="#795DFD" stroke-linecap="round" stroke-linejoin="round" stroke-width="7.1" d="M102.4 32.55l1.7-4"/><animate attributeName="display" dur="2s" keyTimes="0;.667;.688;1" repeatCount="indefinite" values="none;inline;none;none"/></g><g display="none"><path fill="none" stroke="#C346FA" stroke-linecap="round" stroke-linejoin="round" stroke-width="3.55" d="M39.35 36.95q5 11.45 9.25 17.6"/><path fill="none" stroke="#0082FF" stroke-linecap="round" stroke-linejoin="round" stroke-width="10.15" d="M127.75 10.25q4.15 4.65 2.5 15.8"/><path fill="none" stroke="#795DFD" stroke-linecap="round" stroke-linejoin="round" stroke-width="5.55" d="M98.1 42.45l1.1-2.35"/><animate attributeName="display" dur="2s" keyTimes="0;.646;.667;1" repeatCount="indefinite" values="none;inline;none;none"/></g><g display="none"><path fill="none" stroke="#C346FA" stroke-linecap="round" stroke-linejoin="round" stroke-width="5.05" d="M32.65 21.4q1.45 3.05 4.85 11.15 3.25 7.7 5.3 11.9"/><path fill="none" stroke="#0082FF" stroke-linecap="round" stroke-linejoin="round" stroke-width="10.15" d="M117.4 8.3q3-1.45 6.5-.4 2.95.9 4.65 3.45"/><path fill="none" stroke="#795DFD" stroke-linecap="round" stroke-linejoin="round" stroke-width="4.05" d="M92.95 52.1l.7-1.15"/><animate attributeName="display" dur="2s" keyTimes="0;.625;.646;1" repeatCount="indefinite" values="none;inline;none;none"/></g><g display="none"><path fill="none" stroke="#C346FA" stroke-linecap="round" stroke-linejoin="round" stroke-width="6.6" d="M21.3 7.8q4.6 1.45 8.95 9.05 2.35 4.1 7.6 16.55"/><path fill="none" stroke="#0082FF" stroke-linecap="round" stroke-linejoin="round" stroke-width="9.65" d="M109.95 16.4q2.8-4.75 5.7-7.05"/><path fill="none" stroke="#795DFD" stroke-linecap="round" stroke-linejoin="round" stroke-width="2.5" d="M86.35 60.55l.35-.3"/><animate attributeName="display" dur="2s" keyTimes="0;.604;.625;1" repeatCount="indefinite" values="none;inline;none;none"/></g><g display="none"><path fill="none" stroke="#AA4EFB" stroke-linecap="round" stroke-linejoin="round" d="M52.4 59.3q4.7 5.05 10.35 7"/><path fill="none" stroke="#C346FA" stroke-linecap="round" stroke-linejoin="round" stroke-width="8.1" d="M9.2 19.15Q9.6 9.7 16 7.85q5.15-1.55 9.45 2.45 3.45 3.2 7.2 11.1"/><path fill="none" stroke="#0082FF" stroke-linecap="round" stroke-linejoin="round" stroke-width="8.1" d="M105.15 26.15q1.4-3.3 2.75-5.9"/><animate attributeName="display" dur="2s" keyTimes="0;.583;.604;1" repeatCount="indefinite" values="none;inline;none;none"/></g><g display="none"><path fill="none" stroke="#AA4EFB" stroke-linecap="round" stroke-linejoin="round" stroke-width="2.5" d="M43.95 46.75q4.7 9 9.7 13.8"/><path fill="none" stroke="#C346FA" stroke-linecap="round" stroke-linejoin="round" stroke-width="9.65" d="M13.35 39.9Q8.95 28.15 9.2 19.55 9.5 9.8 16 7.85q5.25-1.6 9.65 2.65"/><path fill="none" stroke="#0082FF" stroke-linecap="round" stroke-linejoin="round" stroke-width="6.6" d="M100.95 36.15l1.7-4"/><animate attributeName="display" dur="2s" keyTimes="0;.563;.583;1" repeatCount="indefinite" values="none;inline;none;none"/></g><g display="none"><path fill="none" stroke="#AA4EFB" stroke-linecap="round" stroke-linejoin="round" stroke-width="4.05" d="M37.15 31.75q5.65 13.5 9.35 19.55"/><path fill="none" stroke="#C346FA" stroke-linecap="round" stroke-linejoin="round" stroke-width="10.15" d="M24.85 60.65q-9.2-11-13.7-27.45-4.85-17.65 1.6-23.55"/><path fill="none" stroke="#0082FF" stroke-linecap="round" stroke-linejoin="round" stroke-width="5.05" d="M96.4 46l1.15-2.35"/><animate attributeName="display" dur="2s" keyTimes="0;.542;.563;1" repeatCount="indefinite" values="none;inline;none;none"/></g><g display="none"><path fill="none" stroke="#AA4EFB" stroke-linecap="round" stroke-linejoin="round" stroke-width="5.55" d="M29.85 16q2.35 3.9 5.6 11.5 1.85 4.3 5.7 13.35"/><path fill="none" stroke="#C346FA" stroke-linecap="round" stroke-linejoin="round" stroke-width="10.15" d="M45.3 60q-4 6.25-8.35 7.45-7.45 2.1-17.05-13.85-9.3-15.45-10.6-30.1"/><path fill="none" stroke="#0082FF" stroke-linecap="round" stroke-linejoin="round" stroke-width="3.55" d="M90.9 55.3l.75-1.1"/><animate attributeName="display" dur="2s" keyTimes="0;.521;.542;1" repeatCount="indefinite" values="none;inline;none;none"/></g><g display="none"><path fill="none" stroke="#AA4EFB" stroke-linecap="round" stroke-linejoin="round" stroke-width="7.1" d="M14.9 8.25q.3-.15 1.1-.4 6.35-1.9 11.5 4.7 3.45 4.45 8.65 16.8"/><path fill="none" stroke="#C346FA" stroke-linecap="round" stroke-linejoin="round" stroke-width="10.15" d="M58.15 33.95q-3.4 5.95-9.6 20.2-5.8 11.7-11.6 13.3Q31.5 69 24.25 59.9q-6.75-8.45-11.2-20.85"/><path fill="none" stroke="#0082FF" stroke-linecap="round" stroke-linejoin="round" stroke-width="2" d="M83.35 63.05l.35-.25"/><animate attributeName="display" dur="2s" keyTimes="0;.5;.521;1" repeatCount="indefinite" values="none;inline;none;none"/></g><g display="none"><path fill="none" stroke="#9255FC" stroke-linecap="round" stroke-linejoin="round" stroke-width="1.5" d="M49.1 55.3q4.85 6.65 10.45 9.6"/><path fill="none" stroke="#AA4EFB" stroke-linecap="round" stroke-linejoin="round" stroke-width="8.6" d="M9.65 26.05Q8.6 18.9 10 14.3q1.55-5.1 6-6.45 4.5-1.35 8.25 1.45 3.2 2.35 6.4 8.25"/><path fill="none" stroke="#C346FA" stroke-linecap="round" stroke-linejoin="round" stroke-width="10.15" d="M82.5 35.1q-2.8-5.2-5.55-7.8-3.25-3.1-6.9-3.1-5.1 0-9.6 6.2-2.95 4.05-7.35 13.95-4.9 11-7.15 14.7-4.3 7.1-8.95 8.4-3.6 1-8.2-2.8-4.2-3.55-8.4-10.35"/><animate attributeName="display" dur="2s" keyTimes="0;.479;.5;1" repeatCount="indefinite" values="none;inline;none;none"/></g><g display="none"><path fill="none" stroke="#9255FC" stroke-linecap="round" stroke-linejoin="round" stroke-width="3.05" d="M41.5 41.7q4.9 10.4 9.55 16"/><path fill="none" stroke="#AA4EFB" stroke-linecap="round" stroke-linejoin="round" stroke-width="10.15" d="M16.4 47.05q-6.4-13.3-7.15-24.4Q8.45 10.1 16 7.85q3.05-.95 5.7.05"/><path fill="none" stroke="#C346FA" stroke-linecap="round" stroke-linejoin="round" stroke-width="10.15" d="M102 67.1q-4.35-1.75-8.5-9-1.9-3.3-6.9-14.45-4.25-9.45-7.2-13.5Q75 24.2 70 24.2q-5.1 0-9.6 6.2-2.95 4.05-7.35 13.95-4.9 11-7.15 14.7-4.3 7.1-8.95 8.4-2 .55-4.5-.45"/><animate attributeName="display" dur="2s" keyTimes="0;.458;.479;1" repeatCount="indefinite" values="none;inline;none;none"/></g><g display="none"><path fill="none" stroke="#9255FC" stroke-linecap="round" stroke-linejoin="round" stroke-width="4.55" d="M34.95 26.55q1.5 3.4 4.5 10.65 2.8 6.45 5.1 10.7"/><path fill="none" stroke="#AA4EFB" stroke-linecap="round" stroke-linejoin="round" stroke-width="10.15" d="M30.9 66.15Q21.8 60.6 14.3 42.3q-7.7-18.75-4.1-28.7"/><path fill="none" stroke="#C346FA" stroke-linecap="round" stroke-linejoin="round" stroke-width="10.15" d="M127.8 36.55q-4.25 13.05-11.4 22.4-7.6 10.05-13.35 8.45-4.65-1.3-8.95-8.4-2.25-3.7-7.15-14.7-4.4-9.9-7.35-13.95-4.45-6.2-9.55-6.2-6.7 0-12.85 11.55-1.65 3.15-5.05 10.7-3.2 7.2-5.05 10.55"/><animate attributeName="display" dur="2s" keyTimes="0;.438;.458;1" repeatCount="indefinite" values="none;inline;none;none"/></g><g display="none"><path fill="none" stroke="#9255FC" stroke-linecap="round" stroke-linejoin="round" stroke-width="6.1" d="M26.25 11.1q3.2 3.45 6.8 11.25 2.15 4.55 6.5 15"/><path fill="none" stroke="#AA4EFB" stroke-linecap="round" stroke-linejoin="round" stroke-width="10.15" d="M49.65 51.95Q46.55 58.55 44 62q-3.35 4.45-7 5.45-6.75 1.85-15.6-11.55Q13 43.1 10.1 28.65"/><path fill="none" stroke="#C346FA" stroke-linecap="round" stroke-linejoin="round" stroke-width="10.15" d="M112.1 13.15q5.35-7.3 11.9-5.3 6.7 2 6.8 12.25.1 9.05-4.65 21.2-4.65 11.7-11 19.35-6.9 8.25-12.1 6.8-4.65-1.3-8.95-8.4-2.25-3.7-7.15-14.7-4.4-9.9-7.35-13.95-4.45-6.2-9.55-6.2-4.1 0-7.75 3.95-2.95 3.15-6.15 9.6"/><animate attributeName="display" dur="2s" keyTimes="0;.417;.438;1" repeatCount="indefinite" values="none;inline;none;none"/></g><g display="none"><path fill="none" stroke="#795DFD" stroke-linecap="round" stroke-linejoin="round" stroke-width=".5" d="M55.9 62.55q4.9 3.8 10.6 4.65"/><path fill="none" stroke="#9255FC" stroke-linecap="round" stroke-linejoin="round" stroke-width="7.6" d="M10.5 12.8q1.65-3.85 5.45-4.95 5.75-1.7 10.5 3.55Q30 15.35 34.4 25.35"/><path fill="none" stroke="#AA4EFB" stroke-linecap="round" stroke-linejoin="round" stroke-width="10.15" d="M65 25.7q-3.7 2.4-7.4 9.1-1.75 3.15-6.25 13.2-3.8 8.6-6.4 12.5-3.85 5.8-8.05 6.95-4.85 1.35-11.35-5.95-5.95-6.75-10.65-17.6"/><path fill="none" stroke="#C346FA" stroke-linecap="round" stroke-linejoin="round" stroke-width="10.15" d="M72.9 24.75q4.25 1.55 8.25 8.15 2.3 3.8 6.65 13.6 2.05 4.55 3.7 7.8 3.95-5.75 8.3-15.65 4.7-11.3 7-16.25 3.9-8.45 7.4-11.85 4.4-4.3 9.7-2.7 6.7 2 6.8 12.25.1 9.05-4.65 21.2-4.65 11.7-11 19.35-6.9 8.25-12.1 6.8-4.35-1.2-8.4-7.55-1.3-2.05-3.05-5.6-.1.15-.2.25"/><animate attributeName="display" dur="2s" keyTimes="0;.396;.417;1" repeatCount="indefinite" values="none;inline;none;none"/></g><g display="none"><path fill="none" stroke="#795DFD" stroke-linecap="round" stroke-linejoin="round" stroke-width="2" d="M46.55 51.3Q51 58.75 56.3 62.8"/><path fill="none" stroke="#9255FC" stroke-linecap="round" stroke-linejoin="round" stroke-width="9.15" d="M11.2 33.3q-2.7-9.75-1.8-16.4 1.05-7.4 6.6-9.05 3.7-1.1 6.9.6 2.85 1.5 5.5 5.4"/><path fill="none" stroke="#AA4EFB" stroke-linecap="round" stroke-linejoin="round" stroke-width="10.15" d="M87.65 46.05Q82.8 35.1 80 31.05q-4.7-6.85-10-6.85-5.1 0-9.6 6.2-2.95 4.05-7.35 13.95-4.9 11-7.15 14.7-4.3 7.1-8.95 8.4-2.9.85-6.5-1.55-3.4-2.25-6.95-6.95"/><path fill="none" stroke="#C346FA" stroke-linecap="round" stroke-linejoin="round" stroke-width="10.15" d="M87.55 45.65q2.3 5.15 4.05 8.65 4.55-6.8 9.8-19.05 7.1-16.7 9.8-20.8 5.75-8.7 12.8-6.6 6.7 2 6.8 12.25.1 9.05-4.65 21.2-4.65 11.7-11 19.35-6.9 8.25-12.1 6.8-4.5-1.25-8.65-7.9-1.15-1.9-2.8-5.25-1.15 1.65-2.2 2.95-8.3 10.2-19.35 10.2-8.6 0-15.4-6.05"/><animate attributeName="display" dur="2s" keyTimes="0;.375;.396;1" repeatCount="indefinite" values="none;inline;none;none"/></g><g display="none"><path fill="none" stroke="#795DFD" stroke-linecap="round" stroke-linejoin="round" stroke-width="3.55" d="M39.4 36.95q5 11.45 9.25 17.6"/><path fill="none" stroke="#9255FC" stroke-linecap="round" stroke-linejoin="round" stroke-width="10.15" d="M20.1 53.95q-8.4-13.8-10.5-27.8Q7.3 10.5 16 7.9l1-.25"/><path fill="none" stroke="#AA4EFB" stroke-linecap="round" stroke-linejoin="round" stroke-width="10.15" d="M113.7 62.25q-6.05 6.5-10.65 5.2-4.65-1.3-8.95-8.4-2.25-3.7-7.15-14.7-4.4-9.9-7.35-13.95-4.45-6.2-9.55-6.2-4.9 0-9.25 5.75-3 3.95-7.1 13.05-5.15 11.45-6.75 14.35-4.05 7.25-8.2 9.4"/><path fill="none" stroke="#C346FA" stroke-linecap="round" stroke-linejoin="round" stroke-width="10.15" d="M35.85 28.55q8.3 19.5 12.75 25.95 9.05 12.95 21.45 12.95 11.05 0 19.35-10.2 5.5-6.8 12-22 7.1-16.7 9.8-20.8 5.75-8.7 12.8-6.6 6.45 1.9 6.8 11.45.35 8.45-3.9 20.05-4.1 11.1-10.1 19.25-6.45 8.65-11.75 9.05"/><animate attributeName="display" dur="2s" keyTimes="0;.354;.375;1" repeatCount="indefinite" values="none;inline;none;none"/></g><g display="none"><path fill="none" stroke="#795DFD" stroke-linecap="round" stroke-linejoin="round" stroke-width="5.05" d="M32.7 21.4q1.45 3.05 4.85 11.15 3.25 7.7 5.3 11.9"/><path fill="none" stroke="#9255FC" stroke-linecap="round" stroke-linejoin="round" stroke-width="10.15" d="M39.1 66.55q-1.05.6-2.15.9-4 1.15-9.2-3.7Q23 59.3 18.5 51.1q-4.45-8-6.95-16.6-2.7-9.15-2.3-15.8"/><path fill="none" stroke="#AA4EFB" stroke-linecap="round" stroke-linejoin="round" stroke-width="10.15" d="M130.8 21.8q-.6 14.5-10.2 30.95-9.85 16.9-17.55 14.75-4.65-1.3-8.95-8.4-2.25-3.7-7.15-14.7-4.4-9.9-7.35-13.95-4.45-6.2-9.55-6.2-5.95 0-11.25 8.7-1.4 2.35-8.6 17.9"/><path fill="none" stroke="#C346FA" stroke-linecap="round" stroke-linejoin="round" stroke-width="10.15" d="M14.2 8.65q.75-.4 1.85-.75 7.05-2.1 12.8 6.6 2.7 4.1 9.85 20.8 6.45 15.2 12 22 8.25 10.2 19.35 10.2 11.05 0 19.35-10.2 5.5-6.8 12-22 7.1-16.7 9.8-20.8 5.75-8.7 12.8-6.6 6.9 2.05 6.8 12.85-.1 9.5-5.25 22"/><animate attributeName="display" dur="2s" keyTimes="0;.333;.354;1" repeatCount="indefinite" values="none;inline;none;none"/></g><g display="none"><path fill="none" stroke="#795DFD" stroke-linecap="round" stroke-linejoin="round" stroke-width="6.6" d="M21.3 7.75q4.6 1.45 8.95 9.05 2.35 4.1 7.6 16.55"/><path fill="none" stroke="#9255FC" stroke-linecap="round" stroke-linejoin="round" stroke-width="10.15" d="M53.75 42.9Q48.1 55.4 46.3 58.4q-4.5 7.7-9.3 9.05-6.1 1.7-14.2-9.5-7.6-10.6-11.45-24.25"/><path fill="none" stroke="#AA4EFB" stroke-linecap="round" stroke-linejoin="round" stroke-width="10.15" d="M104.85 26.95q4.65-10.9 8.2-15.1 4.9-5.8 10.9-4 6.7 2 6.8 12.25.1 9.05-4.65 21.2-4.65 11.7-11 19.35-6.9 8.25-12.1 6.8-4.65-1.3-8.95-8.4-2.25-3.7-7.15-14.7-4.4-9.9-7.35-13.95-4.45-6.2-9.55-6.2-5.3 0-10 6.8"/><path fill="none" stroke="#C346FA" stroke-linecap="round" stroke-linejoin="round" stroke-width="10.15" d="M11.95 35.8q-3.3-10.55-2.6-17.9.8-8.3 6.7-10.05 7.05-2.1 12.8 6.6 2.7 4.1 9.85 20.8 6.45 15.2 12 22 8.25 10.2 19.35 10.2 11.05 0 19.35-10.2 5.5-6.8 12-22 7.1-16.7 9.8-20.8 5.75-8.7 12.8-6.6"/><animate attributeName="display" dur="2s" keyTimes="0;.313;.333;1" repeatCount="indefinite" values="none;inline;none;none"/></g><g display="none"><path fill="none" stroke="#0082FF" stroke-linecap="round" stroke-linejoin="round" d="M52.4 59.3q4.7 5.05 10.35 7"/><path fill="none" stroke="#795DFD" stroke-linecap="round" stroke-linejoin="round" stroke-width="8.1" d="M9.2 19.15Q9.6 9.7 16 7.85q5.15-1.55 9.45 2.45 3.45 3.2 7.2 11.1"/><path fill="none" stroke="#9255FC" stroke-linecap="round" stroke-linejoin="round" stroke-width="10.15" d="M75.25 25.95Q72.7 24.2 70 24.2q-5.1 0-9.6 6.2-2.95 4.05-7.35 13.95-4.9 11-7.15 14.7-4.3 7.1-8.95 8.4-4.25 1.2-9.85-4.35Q22 58.05 17.35 49"/><path fill="none" stroke="#AA4EFB" stroke-linecap="round" stroke-linejoin="round" stroke-width="10.15" d="M79.45 30.3Q82 33.8 85.1 40.4q1.75 3.8 5.25 11.55.6 1.25 1.15 2.35 1.45-2.1 2.85-4.5 3.15-5.55 9.4-20.3 5.25-12.45 8.7-16.9 5.15-6.65 11.5-4.75 6.7 2 6.8 12.25.1 9.05-4.65 21.2-4.65 11.7-11 19.35-6.9 8.25-12.1 6.8-5.6-1.6-11.5-13.15-5 7.2-10.7 10.4"/><path fill="none" stroke="#C346FA" stroke-linecap="round" stroke-linejoin="round" stroke-width="10.15" d="M23.5 58.95q-9.9-13.1-13.35-29.85Q6.35 10.7 16 7.85q7.05-2.1 12.8 6.6 2.7 4.1 9.85 20.8 6.45 15.2 12 22Q58.9 67.45 70 67.45q10.2 0 18-8.7 5.7-6.3 11.55-19.45"/><animate attributeName="display" dur="2s" keyTimes="0;.292;.313;1" repeatCount="indefinite" values="none;inline;none;none"/></g><g display="none"><path fill="none" stroke="#0082FF" stroke-linecap="round" stroke-linejoin="round" stroke-width="2.5" d="M43.95 46.75q4.7 9 9.7 13.8"/><path fill="none" stroke="#795DFD" stroke-linecap="round" stroke-linejoin="round" stroke-width="9.65" d="M13.35 39.9Q8.95 28.15 9.2 19.55 9.5 9.8 16 7.85q5.25-1.6 9.65 2.65"/><path fill="none" stroke="#9255FC" stroke-linecap="round" stroke-linejoin="round" stroke-width="10.15" d="M93.1 57.4q-1.9-3.45-5.1-10.65-3.5-7.75-5.1-10.8Q76.75 24.2 70 24.2q-5.1 0-9.6 6.2-2.95 4.05-7.35 13.95-4.9 11-7.15 14.7-4.3 7.1-8.95 8.4-4.1 1.15-9.45-3.95"/><path fill="none" stroke="#AA4EFB" stroke-linecap="round" stroke-linejoin="round" stroke-width="10.15" d="M46.3 50.9q4.65 7.8 9.9 11.8 6.2 4.75 13.85 4.75 11.05 0 19.35-10.2 1.05-1.3 2.15-2.9 4.6-6.85 9.85-19.1 7.1-16.7 9.8-20.8 5.75-8.7 12.8-6.6 6.7 2 6.8 12.25.1 9.05-4.65 21.2-4.65 11.7-11 19.35-6.9 8.25-12.1 6.8-3.3-.9-6.35-4.6-2.45-3.05-5.15-8.5"/><path fill="none" stroke="#C346FA" stroke-linecap="round" stroke-linejoin="round" stroke-width="10.15" d="M42.5 63.8q-2.75 2.9-5.5 3.65-5.2 1.45-12.05-6.8-6.35-7.6-11-19.35-4.8-12.15-4.7-21.2.1-10.25 6.8-12.25Q22.9 5.8 28.5 13.9q3.05 4.4 9.45 19.65 6.3 14.9 11.15 21.65 7.6 10.5 17.45 12"/><animate attributeName="display" dur="2s" keyTimes="0;.271;.292;1" repeatCount="indefinite" values="none;inline;none;none"/></g><g display="none"><path fill="none" stroke="#0082FF" stroke-linecap="round" stroke-linejoin="round" stroke-width="4.05" d="M37.15 31.75q5.65 13.5 9.35 19.55"/><path fill="none" stroke="#795DFD" stroke-linecap="round" stroke-linejoin="round" stroke-width="10.15" d="M24.85 60.65q-9.2-11-13.7-27.45-4.85-17.65 1.6-23.55"/><path fill="none" stroke="#9255FC" stroke-linecap="round" stroke-linejoin="round" stroke-width="10.15" d="M121.85 50.55q-4.6 8.4-9.4 13-5.3 5.05-9.4 3.9-4.65-1.3-8.95-8.4-2.25-3.7-7.15-14.7-4.4-9.9-7.35-13.95-4.45-6.2-9.55-6.2-7.35 0-14.5 14.8-1.95 4.05-5.7 12.6-3.4 7.25-6.25 10.85"/><path fill="none" stroke="#AA4EFB" stroke-linecap="round" stroke-linejoin="round" stroke-width="10.15" d="M31.15 18.35q2 3.75 6.7 15 4.45 10.55 7.6 16.05 10.2 18.1 24.6 18.1 11.05 0 19.35-10.2 5.5-6.8 12-22 7.1-16.7 9.8-20.8 5.75-8.7 12.8-6.6 5.25 1.55 6.45 8.3 1.1 6.05-1.1 15.1-2.05 8.45-6.3 16.9Q118.8 56.7 114 62"/><path fill="none" stroke="#C346FA" stroke-linecap="round" stroke-linejoin="round" stroke-width="10.15" d="M52.65 45.25Q48.1 55.5 45.7 59.4q-4.25 6.8-8.75 8.05-5.2 1.45-12.05-6.8-6.35-7.6-11-19.35-4.8-12.15-4.7-21.2Q9.3 9.85 16 7.85q6.8-2.05 12.3 5.85 3.1 4.45 9.35 19.25"/><animate attributeName="display" dur="2s" keyTimes="0;.25;.271;1" repeatCount="indefinite" values="none;inline;none;none"/></g><g display="none"><path fill="none" stroke="#0082FF" stroke-linecap="round" stroke-linejoin="round" stroke-width="5.55" d="M29.85 16.1q2.35 3.9 5.6 11.5 1.85 4.3 5.7 13.35"/><path fill="none" stroke="#795DFD" stroke-linecap="round" stroke-linejoin="round" stroke-width="10.15" d="M45.3 60.05q-4 6.25-8.35 7.45-7.45 2.1-17.05-13.85-9.3-15.45-10.6-30.1"/><path fill="none" stroke="#9255FC" stroke-linecap="round" stroke-linejoin="round" stroke-width="10.15" d="M125.45 8.4q5.75 2.95 5.35 13.3-.35 9.2-5.15 20.8-4.7 11.35-10.85 18.55-6.7 7.8-11.75 6.4-4.65-1.3-8.95-8.4-2.25-3.7-7.15-14.7-4.4-9.9-7.35-13.95-4.45-6.2-9.55-6.2-5.1 0-9.5 6.1-2.95 4.05-7.3 13.75"/><path fill="none" stroke="#AA4EFB" stroke-linecap="round" stroke-linejoin="round" stroke-width="10.15" d="M9.45 17.05q1.05-7.5 6.6-9.15 7.05-2.1 12.8 6.6 2.7 4.1 9.85 20.8 6.45 15.2 12 22 8.25 10.2 19.35 10.2 11.05 0 19.35-10.2 5.5-6.8 12-22 7.1-16.7 9.8-20.8 5.75-8.7 12.8-6.6 5.25 1.55 6.45 8.3 1.1 6-1.1 15.05"/><path fill="none" stroke="#C346FA" stroke-linecap="round" stroke-linejoin="round" stroke-width="10.15" d="M62.45 27.95q-3 3.2-6.35 9.9-1.9 3.9-5.6 12.35Q43.45 65.65 37 67.45q-4.55 1.25-10.45-5-5.45-5.7-10.15-15.5-4.75-9.85-6.45-19.05-1.85-10.05.8-15.45"/><animate attributeName="display" dur="2s" keyTimes="0;.229;.25;1" repeatCount="indefinite" values="none;inline;none;none"/></g><g display="none"><path fill="none" stroke="#0082FF" stroke-linecap="round" stroke-linejoin="round" stroke-width="7.1" d="M14.9 8.25q.3-.15 1.1-.4 6.35-1.9 11.5 4.7 3.45 4.45 8.65 16.8"/><path fill="none" stroke="#795DFD" stroke-linecap="round" stroke-linejoin="round" stroke-width="10.15" d="M58.2 33.95q-3.4 5.95-9.6 20.2-5.8 11.7-11.6 13.3Q31.55 69 24.3 59.9q-6.75-8.45-11.2-20.85"/><path fill="none" stroke="#9255FC" stroke-linecap="round" stroke-linejoin="round" stroke-width="10.15" d="M98.65 41.3Q106 23.2 109.8 16.6q6.35-11.05 14.15-8.75 6.7 2 6.8 12.25.1 9.05-4.65 21.2-4.65 11.7-11 19.35-6.9 8.25-12.1 6.8-4.65-1.3-8.95-8.4-2.25-3.7-7.15-14.7-4.4-9.9-7.35-13.95-4.45-6.2-9.55-6.2-2.4 0-4.55 1.3"/><path fill="none" stroke="#AA4EFB" stroke-linecap="round" stroke-linejoin="round" stroke-width="10.15" d="M15.2 44.35q-5.65-12.8-5.95-22.9Q8.9 10 16.05 7.9q7.05-2.1 12.8 6.6 2.7 4.1 9.85 20.8 6.45 15.2 12 22 8.25 10.2 19.35 10.2 15.55 0 26.55-21.8 1.7-3.4 8-18.1 4.5-10.5 7.75-14.75"/><path fill="none" stroke="#C346FA" stroke-linecap="round" stroke-linejoin="round" stroke-width="10.15" d="M77.9 28.25q-3.7-4.05-7.85-4.05-5.1 0-9.6 6.2-2.95 4.05-7.35 13.95-4.9 11-7.15 14.7-4.3 7.1-8.95 8.4-4.25 1.2-9.75-4.2-5.05-5-9.65-13.85"/><animate attributeName="display" dur="2s" keyTimes="0;.208;.229;1" repeatCount="indefinite" values="none;inline;none;none"/></g><g display="none"><path fill="none" stroke="#0082FF" stroke-linecap="round" stroke-linejoin="round" stroke-width="8.6" d="M9.65 26.05Q8.6 18.9 10 14.3q1.55-5.1 6-6.45 4.5-1.35 8.25 1.45 3.2 2.35 6.4 8.25"/><path fill="none" stroke="#795DFD" stroke-linecap="round" stroke-linejoin="round" stroke-width="10.15" d="M82.45 35.1q-2.8-5.2-5.55-7.8-3.25-3.1-6.9-3.1-5.1 0-9.6 6.2-2.95 4.05-7.35 13.95-4.9 11-7.15 14.7-4.3 7.1-8.95 8.4-3.6 1-8.2-2.8-4.2-3.55-8.4-10.35"/><path fill="none" stroke="#9255FC" stroke-linecap="round" stroke-linejoin="round" stroke-width="10.15" d="M83.85 37.75q2.7 5.45 7.7 16.5 4.6-6.8 9.8-19 7.1-16.7 9.8-20.8 5.75-8.7 12.8-6.6 6.7 2 6.8 12.25.1 9.05-4.65 21.2-4.65 11.7-11 19.35-6.9 8.25-12.1 6.8-5.4-1.5-10.6-11.3-.45-.95-.85-1.9-1.1 1.65-2.2 3-8.3 10.2-19.35 10.2-1.8 0-3.05-.2"/><path fill="none" stroke="#AA4EFB" stroke-linecap="round" stroke-linejoin="round" stroke-width="10.15" d="M29.2 64.95Q24.05 60.85 19.05 52q-4.9-8.6-7.6-18-2.9-9.95-2.05-16.8 1-7.65 6.65-9.35 7.05-2.1 12.8 6.6 2.7 4.1 9.85 20.8 6.45 15.2 12 22 8.25 10.2 19.35 10.2 7.05 0 12.9-4.05 5-3.5 9.4-10.25"/><path fill="none" stroke="#C346FA" stroke-linecap="round" stroke-linejoin="round" stroke-width="10.15" d="M86.45 43.25Q82.3 34 79.3 30q-4.3-5.8-9.25-5.8-4.6 0-8.6 4.95-3.05 3.65-6.7 11.6-2.1 4.45-6.2 13.45-3.65 7.35-7 10.5"/><animate attributeName="display" dur="2s" keyTimes="0;.188;.208;1" repeatCount="indefinite" values="none;inline;none;none"/></g><g display="none"><path fill="none" stroke="#0082FF" stroke-linecap="round" stroke-linejoin="round" stroke-width="10.15" d="M16.45 47.05q-6.4-13.3-7.15-24.4-.8-12.55 6.75-14.8 3.05-.95 5.7.05"/><path fill="none" stroke="#795DFD" stroke-linecap="round" stroke-linejoin="round" stroke-width="10.15" d="M102.05 67.1q-4.35-1.75-8.5-9-1.9-3.3-6.9-14.45-4.25-9.45-7.2-13.5-4.4-5.95-9.4-5.95-5.1 0-9.6 6.2-2.95 4.05-7.35 13.95-4.9 11-7.15 14.7-4.3 7.1-8.95 8.4-2 .55-4.5-.45"/><path fill="none" stroke="#9255FC" stroke-linecap="round" stroke-linejoin="round" stroke-width="10.15" d="M40.65 39.7q5.75 12.95 11.5 19.2 7.75 8.55 17.9 8.55 11.05 0 19.35-10.2 5.5-6.8 12-22 7.1-16.7 9.8-20.8 5.75-8.7 12.8-6.6 6.7 2 6.8 12.25.1 9.05-4.65 21.2-4.65 11.7-11 19.35-6.9 8.25-12.1 6.8-3.35-.9-6.35-4.65"/><path fill="none" stroke="#AA4EFB" stroke-linecap="round" stroke-linejoin="round" stroke-width="10.15" d="M46.65 57.75q-4.65 8.35-9.7 9.7-5.2 1.45-12.05-6.8-6.35-7.6-11-19.35-4.8-12.15-4.7-21.2Q9.3 9.85 16 7.85q5.75-1.7 10.5 3.55 3.55 3.95 7.95 14 2.5 5.7 7.9 18.15Q47.4 54.1 52.7 59.6"/><path fill="none" stroke="#C346FA" stroke-linecap="round" stroke-linejoin="round" stroke-width="10.15" d="M93.15 57.4q-1.9-3.45-5.1-10.65-3.5-7.75-5.1-10.8Q76.8 24.2 70.05 24.2q-4.35 0-8.2 4.45-3 3.45-6.45 10.7"/><animate attributeName="display" dur="2s" keyTimes="0;.167;.188;1" repeatCount="indefinite" values="none;inline;none;none"/></g><g display="none"><path fill="none" stroke="#0082FF" stroke-linecap="round" stroke-linejoin="round" stroke-width="10.15" d="M30.9 66.2q-9.1-5.55-16.6-23.85-7.7-18.75-4.1-28.7"/><path fill="none" stroke="#795DFD" stroke-linecap="round" stroke-linejoin="round" stroke-width="10.15" d="M127.8 36.6q-4.25 13.05-11.4 22.4-7.6 10.05-13.35 8.45-4.65-1.3-8.95-8.4-2.25-3.7-7.15-14.7-4.4-9.9-7.35-13.95-4.45-6.2-9.55-6.2-6.7 0-12.85 11.55-1.65 3.15-5.05 10.7-3.2 7.2-5.05 10.55"/><path fill="none" stroke="#9255FC" stroke-linecap="round" stroke-linejoin="round" stroke-width="10.15" d="M24.35 9.35q4.25 3.2 8.95 13.45 2.7 5.95 8.45 19.5 5.5 11.7 11.2 17.55 7.45 7.6 17.05 7.6 11.05 0 19.35-10.2 5.5-6.8 12-22 7.1-16.7 9.8-20.8 5.75-8.7 12.8-6.6 8.55 2.55 6.45 17.85-1.9 13.65-10.1 27.5"/><path fill="none" stroke="#AA4EFB" stroke-linecap="round" stroke-linejoin="round" stroke-width="10.15" d="M55.55 38.95q-2.8 5.8-8.3 17.75-5.05 9.3-10.3 10.75-5.2 1.45-12.05-6.8-6.35-7.6-11-19.35-4.8-12.15-4.7-21.2Q9.3 9.85 16 7.85q4.75-1.45 8.75 1.8 3.3 2.75 6.75 9.4"/><path fill="none" stroke="#C346FA" stroke-linecap="round" stroke-linejoin="round" stroke-width="10.15" d="M103.75 67.6l-.7-.15q-4.3-1.2-8.25-7.3-2.55-3.95-6.6-13.05-4.4-9.85-6.5-13.45-3.9-6.65-7.9-8.55"/><animate attributeName="display" dur="2s" keyTimes="0;.146;.167;1" repeatCount="indefinite" values="none;inline;none;none"/></g><g display="none"><path fill="none" stroke="#0082FF" stroke-linecap="round" stroke-linejoin="round" stroke-width="10.15" d="M49.6 51.95q-3.1 6.6-5.65 10.05-3.35 4.45-7 5.45-6.75 1.85-15.6-11.55-8.4-12.8-11.3-27.25"/><path fill="none" stroke="#795DFD" stroke-linecap="round" stroke-linejoin="round" stroke-width="10.15" d="M112.1 13.15q5.35-7.3 11.9-5.3 6.7 2 6.8 12.25.1 9.05-4.65 21.2-4.65 11.7-11 19.35-6.9 8.25-12.1 6.8-4.65-1.3-8.95-8.4-2.25-3.7-7.15-14.7-4.4-9.9-7.35-13.95-4.45-6.2-9.55-6.2-4.1 0-7.75 3.95-2.95 3.15-6.15 9.6"/><path fill="none" stroke="#9255FC" stroke-linecap="round" stroke-linejoin="round" stroke-width="10.15" d="M9.75 26.55Q8.6 19.2 10 14.45q1.55-5.2 6.05-6.55 7.05-2.1 12.8 6.6 2.7 4.1 9.85 20.8 6.45 15.2 12 22 8.25 10.2 19.35 10.2 11.05 0 19.35-10.2 5.5-6.8 12-22 7.1-16.7 9.8-20.8 5.75-8.7 12.8-6.6 6 1.75 6.75 10.45"/><path fill="none" stroke="#AA4EFB" stroke-linecap="round" stroke-linejoin="round" stroke-width="10.15" d="M67.45 24.6q-4.35 1.35-8.4 7.9-2.4 3.85-6.75 13.7-4.3 9.65-6.8 13.55-4.1 6.45-8.5 7.7-7.1 2-16.4-12.85-8.95-14.3-11-28.95"/><path fill="none" stroke="#C346FA" stroke-linecap="round" stroke-linejoin="round" stroke-width="10.15" d="M115.4 60.35q-3.25 4.05-6.35 5.9-3.3 2-6 1.25-4.65-1.3-9-8.55-2.1-3.45-7.25-14.85"/><animate attributeName="display" dur="2s" keyTimes="0;.125;.146;1" repeatCount="indefinite" values="none;inline;none;none"/></g><g display="none"><path fill="none" stroke="#0082FF" stroke-linecap="round" stroke-linejoin="round" stroke-width="10.15" d="M65.1 25.7q-3.7 2.4-7.4 9.1-1.75 3.15-6.25 13.2-3.8 8.6-6.4 12.5-3.85 5.8-8.05 6.95-4.85 1.35-11.35-5.95Q19.7 54.75 15 43.9"/><path fill="none" stroke="#795DFD" stroke-linecap="round" stroke-linejoin="round" stroke-width="10.15" d="M72.95 24.75q4.25 1.55 8.25 8.15 2.3 3.8 6.65 13.6 2.05 4.55 3.7 7.8 3.95-5.75 8.3-15.65 4.7-11.3 7-16.25 3.9-8.45 7.4-11.85 4.4-4.3 9.7-2.7 6.7 2 6.8 12.25.1 9.05-4.65 21.2-4.65 11.7-11 19.35-6.9 8.25-12.1 6.8-4.35-1.2-8.4-7.55-1.3-2.05-3.05-5.6-.1.15-.2.25"/><path fill="none" stroke="#9255FC" stroke-linecap="round" stroke-linejoin="round" stroke-width="10.15" d="M19.05 52.05q-7.85-13.8-9.5-26.95-1.85-14.75 6.5-17.25 7.05-2.1 12.8 6.6 2.7 4.1 9.85 20.8 6.45 15.2 12 22 8.25 10.2 19.35 10.2 12.9 0 22.25-14.25 3.4-5.2 7.15-13.5 4.05-9.55 5.95-13.95"/><path fill="none" stroke="#AA4EFB" stroke-linecap="round" stroke-linejoin="round" stroke-width="10.15" d="M81.35 33.2q-5.3-9-11.35-9-5.1 0-9.6 6.2-2.95 4.05-7.35 13.95-4.9 11-7.15 14.7-4.3 7.1-8.95 8.4-2.9.85-6.5-1.55-3.4-2.25-6.95-6.95"/><path fill="none" stroke="#C346FA" stroke-linecap="round" stroke-linejoin="round" stroke-width="10.15" d="M122.6 49q-4.65 9.05-9.75 14.1-5.6 5.55-9.85 4.35-3.35-.9-6.35-4.65"/><animate attributeName="display" dur="2s" keyTimes="0;.104;.125;1" repeatCount="indefinite" values="none;inline;none;none"/></g><g display="none"><path fill="none" stroke="#0082FF" stroke-linecap="round" stroke-linejoin="round" stroke-width="10.15" d="M87.65 46.05Q82.8 35.1 80 31.05q-4.7-6.85-10-6.85-5.1 0-9.6 6.2-2.95 4.05-7.35 13.95-4.9 11-7.15 14.7-4.3 7.1-8.95 8.4-2.9.85-6.5-1.55-3.4-2.25-6.95-6.95"/><path fill="none" stroke="#795DFD" stroke-linecap="round" stroke-linejoin="round" stroke-width="10.15" d="M87.55 45.65q2.3 5.15 4.05 8.65 4.55-6.8 9.8-19.05 7.1-16.7 9.8-20.8 5.75-8.7 12.8-6.6 6.7 2 6.8 12.25.1 9.05-4.65 21.2-4.65 11.7-11 19.35-6.9 8.25-12.1 6.8-4.5-1.25-8.65-7.9-1.15-1.9-2.8-5.25-1.15 1.65-2.2 2.95-8.3 10.2-19.35 10.2-8.6 0-15.4-6.05"/><path fill="none" stroke="#9255FC" stroke-linecap="round" stroke-linejoin="round" stroke-width="10.15" d="M36.3 67.6q-5.25.75-11.95-7.65-6.25-7.8-10.7-19.35-4.6-11.95-4.4-20.75.2-10.05 6.8-12 7.05-2.1 12.8 6.6 2.7 4.1 9.85 20.8 6.45 15.2 12 22 8.25 10.2 19.35 10.2 6.3 0 11.55-3.2"/><path fill="none" stroke="#AA4EFB" stroke-linecap="round" stroke-linejoin="round" stroke-width="10.15" d="M88.6 48.05q-5.5-12.4-8.05-16.25-4.9-7.6-10.5-7.6-6.7 0-12.75 11.35-3.45 6.5-9.95 21.1"/><path fill="none" stroke="#C346FA" stroke-linecap="round" stroke-linejoin="round" stroke-width="10.15" d="M127.65 37.05q-2.55 7.6-6.45 14.55-3.95 7.1-8.15 11.35"/><animate attributeName="display" dur="2s" keyTimes="0;.083;.104;1" repeatCount="indefinite" values="none;inline;none;none"/></g><g display="none"><path fill="none" stroke="#0082FF" stroke-linecap="round" stroke-linejoin="round" stroke-width="10.15" d="M113.65 62.25q-6.05 6.5-10.65 5.2-4.65-1.3-8.95-8.4-2.25-3.7-7.15-14.7-4.4-9.9-7.35-13.95-4.45-6.2-9.55-6.2-4.9 0-9.25 5.75-3 3.95-7.1 13.05-5.15 11.45-6.75 14.35-4.05 7.25-8.2 9.4"/><path fill="none" stroke="#795DFD" stroke-linecap="round" stroke-linejoin="round" stroke-width="10.15" d="M35.8 28.55q8.3 19.5 12.75 25.95Q57.6 67.45 70 67.45q11.05 0 19.35-10.2 5.5-6.8 12-22 7.1-16.7 9.8-20.8 5.75-8.7 12.8-6.6 6.45 1.9 6.8 11.45.35 8.45-3.9 20.05-4.1 11.1-10.1 19.25-6.45 8.65-11.75 9.05"/><path fill="none" stroke="#9255FC" stroke-linecap="round" stroke-linejoin="round" stroke-width="10.15" d="M49.8 51.6q-3.2 6.75-5.75 10.25-3.4 4.55-7.1 5.6-5.2 1.45-12.05-6.8-6.35-7.6-11-19.35-4.8-12.15-4.7-21.2Q9.3 9.85 16 7.85q8.35-2.5 15.35 10.9 1.95 3.8 6 13.45 4.05 9.65 6.6 14.55"/><path fill="none" stroke="#AA4EFB" stroke-linecap="round" stroke-linejoin="round" stroke-width="10.15" d="M95.85 61.8q-2.7-3.65-6.05-10.9-3.7-8.45-5.6-12.4Q77.25 24.2 70 24.2q-5.45 0-10.25 7.15"/><path fill="none" stroke="#C346FA" stroke-linecap="round" stroke-linejoin="round" stroke-width="10.15" d="M130.45 25.2q-1.35 10.75-7.3 22.65"/><animate attributeName="display" dur="2s" keyTimes="0;.063;.083;1" repeatCount="indefinite" values="none;inline;none;none"/></g><g display="none"><path fill="none" stroke="#0082FF" stroke-linecap="round" stroke-linejoin="round" stroke-width="10.15" d="M130.75 21.8q-.6 14.5-10.2 30.95Q110.7 69.65 103 67.5q-4.65-1.3-8.95-8.4-2.25-3.7-7.15-14.7-4.4-9.9-7.35-13.95-4.45-6.2-9.55-6.2-5.95 0-11.25 8.7-1.4 2.35-8.6 17.9"/><path fill="none" stroke="#795DFD" stroke-linecap="round" stroke-linejoin="round" stroke-width="10.15" d="M14.15 8.65q.75-.4 1.85-.75 7.05-2.1 12.8 6.6 2.7 4.1 9.85 20.8 6.45 15.2 12 22Q58.9 67.5 70 67.5q11.05 0 19.35-10.2 5.5-6.8 12-22 7.1-16.7 9.8-20.8 5.75-8.7 12.8-6.6 6.9 2.05 6.8 12.85-.1 9.5-5.25 22"/><path fill="none" stroke="#9255FC" stroke-linecap="round" stroke-linejoin="round" stroke-width="10.15" d="M58.6 33.2q-3.55 5.95-9.85 20.55-5.9 12.05-11.8 13.7-5.2 1.45-12.05-6.8-6.35-7.6-11-19.35-4.8-12.15-4.7-21.2Q9.3 9.85 16 7.85q3.5-1.05 6.5.4"/><path fill="none" stroke="#AA4EFB" stroke-linecap="round" stroke-linejoin="round" stroke-width="10.15" d="M108.25 66.6q-2.75 1.55-5.25.85-6.15-1.7-12.55-15.25-3.45-7.7-5.2-11.45-3.05-6.6-5.55-10.1"/><path fill="none" stroke="#C346FA" stroke-linecap="round" stroke-linejoin="round" stroke-width="10.15" d="M129.6 13.25q2.65 6.7-.5 18.8"/><animate attributeName="display" dur="2s" keyTimes="0;.042;.063;1" repeatCount="indefinite" values="none;inline;none;none"/></g><g display="none"><path fill="none" stroke="#0082FF" stroke-linecap="round" stroke-linejoin="round" stroke-width="10.15" d="M104.85 26.95q4.65-10.9 8.2-15.1 4.9-5.8 10.9-4 6.7 2 6.8 12.25.1 9.05-4.65 21.2-4.65 11.7-11 19.35-6.9 8.25-12.1 6.8-4.65-1.3-8.95-8.4-2.25-3.7-7.15-14.7-4.4-9.9-7.35-13.95-4.45-6.2-9.55-6.2-5.3 0-10 6.8"/><path fill="none" stroke="#795DFD" stroke-linecap="round" stroke-linejoin="round" stroke-width="10.15" d="M11.95 35.8q-3.3-10.55-2.6-17.9.8-8.3 6.7-10.05 7.05-2.1 12.8 6.6 2.7 4.1 9.85 20.8 6.45 15.2 12 22 8.25 10.2 19.35 10.2 11.05 0 19.35-10.2 5.5-6.8 12-22 7.1-16.7 9.8-20.8 5.75-8.7 12.8-6.6"/><path fill="none" stroke="#9255FC" stroke-linecap="round" stroke-linejoin="round" stroke-width="10.15" d="M73.35 24.9q-1.65-.7-3.35-.7-5.1 0-9.6 6.2-2.95 4.05-7.35 13.95-4.9 11-7.15 14.7-4.3 7.1-8.95 8.4Q31.4 69 24.05 59.6q-6.85-8.75-11.3-21.35"/><path fill="none" stroke="#AA4EFB" stroke-linecap="round" stroke-linejoin="round" stroke-width="10.15" d="M117.95 56.85q-3.9 5.7-7.65 8.45-4.05 3.05-7.3 2.15-3.8-1.05-7.3-5.9-2.6-3.6-5.9-10.75"/><path fill="none" stroke="#C346FA" stroke-linecap="round" stroke-linejoin="round" stroke-width="10.15" d="M120.85 7.4q1.5-.05 3.15.45 5.4 1.55 6.55 8.7"/><animate attributeName="display" dur="2s" keyTimes="0;.021;.042;1" repeatCount="indefinite" values="none;inline;none;none"/></g><g><path fill="none" stroke="#0082FF" stroke-linecap="round" stroke-linejoin="round" stroke-width="10.15" d="M79.4 30.3q2.55 3.5 5.65 10.1 1.75 3.8 5.25 11.55.6 1.25 1.15 2.35 1.45-2.1 2.85-4.5 3.15-5.55 9.4-20.3 5.25-12.45 8.7-16.9 5.15-6.65 11.5-4.75 6.7 2 6.8 12.25.1 9.05-4.65 21.2-4.65 11.7-11 19.35-6.9 8.25-12.1 6.8-5.6-1.6-11.5-13.15-5 7.2-10.7 10.4"/><path fill="none" stroke="#795DFD" stroke-linecap="round" stroke-linejoin="round" stroke-width="10.15" d="M23.5 58.95q-9.9-13.1-13.35-29.85Q6.35 10.7 16 7.85q7.05-2.1 12.8 6.6 2.7 4.1 9.85 20.8 6.45 15.2 12 22Q58.9 67.45 70 67.45q10.2 0 18-8.7 5.7-6.3 11.55-19.45"/><path fill="none" stroke="#9255FC" stroke-linecap="round" stroke-linejoin="round" stroke-width="10.15" d="M84.05 38.15q-3.25-6.65-6.2-9.85-3.7-4.1-7.85-4.1-5.1 0-9.6 6.2-2.95 4.05-7.35 13.95-4.9 11-7.15 14.7-4.3 7.1-8.95 8.4-2.5.7-5.25-.85"/><path fill="none" stroke="#AA4EFB" stroke-linecap="round" stroke-linejoin="round" stroke-width="10.15" d="M124.5 45.1q-4.7 10.45-10.45 16.8-6.25 6.9-11 5.55l-1-.35"/><path fill="none" stroke="#C346FA" stroke-linecap="round" stroke-linejoin="round" stroke-width="10.15" d="M112.1 13.15q3.9-5.35 8.3-5.75"/><animate attributeName="display" dur="2s" keyTimes="0;.021;1" repeatCount="indefinite" values="inline;none;none"/></g></g></svg>